<mxfile host="app.diagrams.net" modified="2023-10-29T16:32:45.965Z" agent="Mozilla/5.0 (X11; Linux x86_64) AppleWebKit/537.36 (KHTML, like Gecko) Chrome/118.0.0.0 Safari/537.36" etag="BR9o-yZObzH0QzcjRD4t" version="22.0.8" type="device">
  <diagram name="Página-1" id="VhisjeJg-uqaOqlf25Oy">
    <mxGraphModel dx="1137" dy="649" grid="1" gridSize="10" guides="1" tooltips="1" connect="1" arrows="1" fold="1" page="1" pageScale="1" pageWidth="827" pageHeight="1169" math="0" shadow="0">
      <root>
        <mxCell id="0" />
        <mxCell id="1" parent="0" />
        <mxCell id="wWQ6sx1EbPbGWh6QyXlS-2" value="&amp;lt;&amp;lt;serviço&amp;gt;&amp;gt;&lt;br&gt;GestãoInfo" style="rounded=0;whiteSpace=wrap;html=1;fillColor=#0066CC;strokeColor=#001DBC;fontColor=#ffffff;" parent="1" vertex="1">
          <mxGeometry x="130" y="190" width="180" height="90" as="geometry" />
        </mxCell>
        <mxCell id="wWQ6sx1EbPbGWh6QyXlS-3" value="" style="rounded=0;whiteSpace=wrap;html=1;fillColor=#dae8fc;strokeColor=#6c8ebf;" parent="1" vertex="1">
          <mxGeometry x="100" y="340" width="660" height="190" as="geometry" />
        </mxCell>
        <mxCell id="wWQ6sx1EbPbGWh6QyXlS-5" value="&amp;lt;&amp;lt;SPA&amp;gt;&amp;gt;&lt;br&gt;UI" style="text;html=1;strokeColor=none;fillColor=none;align=center;verticalAlign=middle;whiteSpace=wrap;rounded=0;" parent="1" vertex="1">
          <mxGeometry x="110" y="350" width="60" height="30" as="geometry" />
        </mxCell>
        <mxCell id="mUxh0xtQRtwSu3Z8-3jS-1" value="&amp;lt;&amp;lt;serviço&amp;gt;&amp;gt;&lt;br&gt;Planeamento" style="rounded=0;whiteSpace=wrap;html=1;fillColor=#0066CC;strokeColor=#001DBC;fontColor=#ffffff;" vertex="1" parent="1">
          <mxGeometry x="390" y="190" width="180" height="90" as="geometry" />
        </mxCell>
        <mxCell id="mUxh0xtQRtwSu3Z8-3jS-2" value="" style="endArrow=classic;html=1;rounded=0;exitX=1;exitY=0.5;exitDx=0;exitDy=0;" edge="1" parent="1" source="wWQ6sx1EbPbGWh6QyXlS-2" target="mUxh0xtQRtwSu3Z8-3jS-1">
          <mxGeometry width="50" height="50" relative="1" as="geometry">
            <mxPoint x="410" y="400" as="sourcePoint" />
            <mxPoint x="460" y="350" as="targetPoint" />
          </mxGeometry>
        </mxCell>
        <mxCell id="mUxh0xtQRtwSu3Z8-3jS-3" value="&amp;lt;&amp;lt;componente web&amp;gt;&amp;gt;&lt;br&gt;Visualizador 3D" style="rounded=0;whiteSpace=wrap;html=1;fillColor=#0066CC;strokeColor=#001DBC;fontColor=#ffffff;" vertex="1" parent="1">
          <mxGeometry x="390" y="380" width="180" height="90" as="geometry" />
        </mxCell>
        <mxCell id="mUxh0xtQRtwSu3Z8-3jS-4" value="" style="endArrow=classic;html=1;rounded=0;entryX=0.5;entryY=0;entryDx=0;entryDy=0;" edge="1" parent="1" source="mUxh0xtQRtwSu3Z8-3jS-1" target="mUxh0xtQRtwSu3Z8-3jS-3">
          <mxGeometry width="50" height="50" relative="1" as="geometry">
            <mxPoint x="410" y="400" as="sourcePoint" />
            <mxPoint x="460" y="350" as="targetPoint" />
          </mxGeometry>
        </mxCell>
      </root>
    </mxGraphModel>
  </diagram>
</mxfile>
